<svg id="visual" viewBox="0 0 1920 1080" width="1920" height="1080" xmlns="http://www.w3.org/2000/svg" xmlns:xlink="http://www.w3.org/1999/xlink" version="1.1"><rect x="0" y="0" width="1920" height="1080" fill="#14004d"/><defs><linearGradient id="grad1_0" x1="43.8%" y1="100%" x2="100%" y2="0%"><stop offset="14.444444444444446%" stop-color="#11589c" stop-opacity="1"/><stop offset="85.55555555555554%" stop-color="#11589c" stop-opacity="1"/></linearGradient></defs><defs><linearGradient id="grad1_1" x1="43.8%" y1="100%" x2="100%" y2="0%"><stop offset="14.444444444444446%" stop-color="#11589c" stop-opacity="1"/><stop offset="85.55555555555554%" stop-color="#0d4c92" stop-opacity="1"/></linearGradient></defs><defs><linearGradient id="grad1_2" x1="43.8%" y1="100%" x2="100%" y2="0%"><stop offset="14.444444444444446%" stop-color="#0c4087" stop-opacity="1"/><stop offset="85.55555555555554%" stop-color="#0d4c92" stop-opacity="1"/></linearGradient></defs><defs><linearGradient id="grad1_3" x1="43.8%" y1="100%" x2="100%" y2="0%"><stop offset="14.444444444444446%" stop-color="#0c4087" stop-opacity="1"/><stop offset="85.55555555555554%" stop-color="#0e347c" stop-opacity="1"/></linearGradient></defs><defs><linearGradient id="grad1_4" x1="43.8%" y1="100%" x2="100%" y2="0%"><stop offset="14.444444444444446%" stop-color="#102871" stop-opacity="1"/><stop offset="85.55555555555554%" stop-color="#0e347c" stop-opacity="1"/></linearGradient></defs><defs><linearGradient id="grad1_5" x1="43.8%" y1="100%" x2="100%" y2="0%"><stop offset="14.444444444444446%" stop-color="#102871" stop-opacity="1"/><stop offset="85.55555555555554%" stop-color="#121c65" stop-opacity="1"/></linearGradient></defs><defs><linearGradient id="grad1_6" x1="43.8%" y1="100%" x2="100%" y2="0%"><stop offset="14.444444444444446%" stop-color="#130f59" stop-opacity="1"/><stop offset="85.55555555555554%" stop-color="#121c65" stop-opacity="1"/></linearGradient></defs><defs><linearGradient id="grad1_7" x1="43.8%" y1="100%" x2="100%" y2="0%"><stop offset="14.444444444444446%" stop-color="#130f59" stop-opacity="1"/><stop offset="85.55555555555554%" stop-color="#14004d" stop-opacity="1"/></linearGradient></defs><defs><linearGradient id="grad2_0" x1="0%" y1="100%" x2="56.3%" y2="0%"><stop offset="14.444444444444446%" stop-color="#11589c" stop-opacity="1"/><stop offset="85.55555555555554%" stop-color="#11589c" stop-opacity="1"/></linearGradient></defs><defs><linearGradient id="grad2_1" x1="0%" y1="100%" x2="56.3%" y2="0%"><stop offset="14.444444444444446%" stop-color="#0d4c92" stop-opacity="1"/><stop offset="85.55555555555554%" stop-color="#11589c" stop-opacity="1"/></linearGradient></defs><defs><linearGradient id="grad2_2" x1="0%" y1="100%" x2="56.3%" y2="0%"><stop offset="14.444444444444446%" stop-color="#0d4c92" stop-opacity="1"/><stop offset="85.55555555555554%" stop-color="#0c4087" stop-opacity="1"/></linearGradient></defs><defs><linearGradient id="grad2_3" x1="0%" y1="100%" x2="56.3%" y2="0%"><stop offset="14.444444444444446%" stop-color="#0e347c" stop-opacity="1"/><stop offset="85.55555555555554%" stop-color="#0c4087" stop-opacity="1"/></linearGradient></defs><defs><linearGradient id="grad2_4" x1="0%" y1="100%" x2="56.3%" y2="0%"><stop offset="14.444444444444446%" stop-color="#0e347c" stop-opacity="1"/><stop offset="85.55555555555554%" stop-color="#102871" stop-opacity="1"/></linearGradient></defs><defs><linearGradient id="grad2_5" x1="0%" y1="100%" x2="56.3%" y2="0%"><stop offset="14.444444444444446%" stop-color="#121c65" stop-opacity="1"/><stop offset="85.55555555555554%" stop-color="#102871" stop-opacity="1"/></linearGradient></defs><defs><linearGradient id="grad2_6" x1="0%" y1="100%" x2="56.3%" y2="0%"><stop offset="14.444444444444446%" stop-color="#121c65" stop-opacity="1"/><stop offset="85.55555555555554%" stop-color="#130f59" stop-opacity="1"/></linearGradient></defs><defs><linearGradient id="grad2_7" x1="0%" y1="100%" x2="56.3%" y2="0%"><stop offset="14.444444444444446%" stop-color="#14004d" stop-opacity="1"/><stop offset="85.55555555555554%" stop-color="#130f59" stop-opacity="1"/></linearGradient></defs><g transform="translate(1920, 1080)"><path d="M-540 0C-484.9 -39.6 -429.8 -79.1 -422.3 -137.2C-414.8 -195.3 -454.9 -271.8 -436.9 -317.4C-418.9 -363 -342.7 -377.6 -285.7 -393.2C-228.6 -408.7 -190.6 -425.2 -146.2 -449.8C-101.7 -474.5 -50.9 -507.2 0 -540L0 0Z" fill="#130753"/><path d="M-472.5 0C-424.3 -34.6 -376 -69.3 -369.5 -120.1C-362.9 -170.9 -398 -237.8 -382.3 -277.7C-366.5 -317.6 -299.9 -330.4 -250 -344C-200 -357.6 -166.8 -372.1 -127.9 -393.6C-89 -415.2 -44.5 -443.8 0 -472.5L0 0Z" fill="#12165f"/><path d="M-405 0C-363.7 -29.7 -322.3 -59.4 -316.7 -102.9C-311.1 -146.4 -341.2 -203.9 -327.7 -238.1C-314.1 -272.2 -257 -283.2 -214.2 -294.9C-171.4 -306.6 -142.9 -318.9 -109.6 -337.4C-76.3 -355.9 -38.1 -380.4 0 -405L0 0Z" fill="#11226b"/><path d="M-337.5 0C-303.1 -24.7 -268.6 -49.5 -263.9 -85.8C-259.2 -122 -284.3 -169.9 -273 -198.4C-261.8 -226.9 -214.2 -236 -178.5 -245.7C-142.9 -255.5 -119.1 -265.8 -91.4 -281.2C-63.6 -296.5 -31.8 -317 0 -337.5L0 0Z" fill="#0f2e77"/><path d="M-270 0C-242.4 -19.8 -214.9 -39.6 -211.1 -68.6C-207.4 -97.6 -227.4 -135.9 -218.4 -158.7C-209.4 -181.5 -171.4 -188.8 -142.8 -196.6C-114.3 -204.4 -95.3 -212.6 -73.1 -224.9C-50.9 -237.2 -25.4 -253.6 0 -270L0 0Z" fill="#0d3a82"/><path d="M-202.5 0C-181.8 -14.8 -161.2 -29.7 -158.4 -51.5C-155.5 -73.2 -170.6 -101.9 -163.8 -119C-157.1 -136.1 -128.5 -141.6 -107.1 -147.4C-85.7 -153.3 -71.5 -159.5 -54.8 -168.7C-38.1 -177.9 -19.1 -190.2 0 -202.5L0 0Z" fill="#0c468d"/><path d="M-135 0C-121.2 -9.9 -107.4 -19.8 -105.6 -34.3C-103.7 -48.8 -113.7 -68 -109.2 -79.4C-104.7 -90.7 -85.7 -94.4 -71.4 -98.3C-57.1 -102.2 -47.6 -106.3 -36.5 -112.5C-25.4 -118.6 -12.7 -126.8 0 -135L0 0Z" fill="#0f5297"/><path d="M-67.5 0C-60.6 -4.9 -53.7 -9.9 -52.8 -17.2C-51.8 -24.4 -56.9 -34 -54.6 -39.7C-52.4 -45.4 -42.8 -47.2 -35.7 -49.1C-28.6 -51.1 -23.8 -53.2 -18.3 -56.2C-12.7 -59.3 -6.4 -63.4 0 -67.5L0 0Z" fill="#11589c"/></g><g transform="translate(0, 0)"><path d="M540 0C515.8 49.1 491.5 98.2 480.3 156.1C469 213.9 470.8 280.5 436.9 317.4C403 354.3 333.4 361.5 284.5 391.6C235.6 421.6 207.4 474.6 163.5 503.1C119.5 531.7 59.8 535.8 0 540L0 0Z" fill="#130753"/><path d="M472.5 0C451.3 43 430.1 85.9 420.2 136.5C410.4 187.2 411.9 245.4 382.3 277.7C352.6 310 291.7 316.3 248.9 342.6C206.2 368.9 181.5 415.2 143 440.2C104.6 465.2 52.3 468.9 0 472.5L0 0Z" fill="#12165f"/><path d="M405 0C386.8 36.8 368.6 73.7 360.2 117C351.8 160.4 353.1 210.4 327.7 238.1C302.2 265.7 250 271.1 213.4 293.7C176.7 316.2 155.6 355.9 122.6 377.3C89.6 398.7 44.8 401.9 0 405L0 0Z" fill="#11226b"/><path d="M337.5 0C322.4 30.7 307.2 61.4 300.2 97.5C293.1 133.7 294.2 175.3 273 198.4C251.8 221.4 208.4 225.9 177.8 244.7C147.3 263.5 129.6 296.6 102.2 314.4C74.7 332.3 37.3 334.9 0 337.5L0 0Z" fill="#0f2e77"/><path d="M270 0C257.9 24.6 245.8 49.1 240.1 78C234.5 107 235.4 140.3 218.4 158.7C201.5 177.2 166.7 180.8 142.2 195.8C117.8 210.8 103.7 237.3 81.7 251.6C59.8 265.8 29.9 267.9 0 270L0 0Z" fill="#0d3a82"/><path d="M202.5 0C193.4 18.4 184.3 36.8 180.1 58.5C175.9 80.2 176.5 105.2 163.8 119C151.1 132.9 125 135.6 106.7 146.8C88.4 158.1 77.8 178 61.3 188.7C44.8 199.4 22.4 200.9 0 202.5L0 0Z" fill="#0c468d"/><path d="M135 0C128.9 12.3 122.9 24.6 120.1 39C117.3 53.5 117.7 70.1 109.2 79.4C100.7 88.6 83.3 90.4 71.1 97.9C58.9 105.4 51.9 118.6 40.9 125.8C29.9 132.9 14.9 134 0 135L0 0Z" fill="#0f5297"/><path d="M67.5 0C64.5 6.1 61.4 12.3 60 19.5C58.6 26.7 58.8 35.1 54.6 39.7C50.4 44.3 41.7 45.2 35.6 48.9C29.5 52.7 25.9 59.3 20.4 62.9C14.9 66.5 7.5 67 0 67.5L0 0Z" fill="#11589c"/></g></svg>